<svg width="68" height="59" viewBox="0 0 68 59" fill="none" xmlns="http://www.w3.org/2000/svg">
<path d="M25.2787 56.4132C26.849 56.4132 28.1219 55.2744 28.1219 53.8697C28.1219 52.4649 26.849 51.3262 25.2787 51.3262C23.7085 51.3262 22.4355 52.4649 22.4355 53.8697C22.4355 55.2744 23.7085 56.4132 25.2787 56.4132Z" stroke="#BE2537" stroke-width="4.63333" stroke-linecap="round" stroke-linejoin="round"/>
<path d="M56.5531 56.4132C58.1234 56.4132 59.3963 55.2744 59.3963 53.8697C59.3963 52.4649 58.1234 51.3262 56.5531 51.3262C54.9829 51.3262 53.71 52.4649 53.71 53.8697C53.71 55.2744 54.9829 56.4132 56.5531 56.4132Z" stroke="#BE2537" stroke-width="4.63333" stroke-linecap="round" stroke-linejoin="round"/>
<path d="M2.5332 2.99951H13.9059L21.5257 37.0568C21.7856 38.2278 22.4978 39.2797 23.5373 40.0284C24.5769 40.777 25.8777 41.1747 27.212 41.1518H54.8477C56.1821 41.1747 57.4829 40.777 58.5224 40.0284C59.562 39.2797 60.2741 38.2278 60.5341 37.0568L65.0832 15.717H16.7491" stroke="#BE2537" stroke-width="4.63333" stroke-linecap="round" stroke-linejoin="round"/>
<path d="M50.9843 24.4724L51.3995 23.8475C51.3995 23.8475 51.7651 23.2946 51.7651 22.5523C51.7651 20.7539 49.8838 20.8014 49.8838 20.8014L45.7849 19.7837L43.5489 17.7671L40.6066 18.4977L39.6417 18.2581L38.9085 18.9195L34.6724 19.9714C34.6724 19.9714 33.0421 19.9306 33.0421 21.4889C33.0421 22.1323 33.3593 22.6115 33.3593 22.6115L33.9045 23.4323L33.4255 23.8637L31.0607 24.4511C31.0607 24.4511 29.1793 24.4036 29.1793 26.2019C29.1831 26.6209 29.2906 27.0337 29.4937 27.4096L28.7637 28.068L29.1466 28.2064C29.1551 28.2252 29.1583 28.2462 29.1749 28.2612C29.9154 28.9381 29.8545 29.8472 29.7487 30.3382L29.3012 30.7471L32.6914 32.2337L37.3475 39.2435C38.0937 40.313 39.6776 39.6439 39.6776 39.6439L51.6424 34.3968L51.1949 33.9879C51.0892 33.4969 51.0282 32.5878 51.7688 31.9106C51.7853 31.8955 51.7885 31.8745 51.797 31.8561L52.18 31.7173L49.9552 29.7114L52.5097 28.5914L52.1219 28.237C52.0303 27.8115 51.9774 27.0235 52.6194 26.4368C52.6336 26.4235 52.636 26.4059 52.6436 26.3893L52.9766 26.2689L50.9843 24.4724ZM48.6901 21.2206L48.1856 21.9486L46.8806 20.7716L48.6901 21.2206ZM43.766 19.6604L45.6397 21.4871L38.8645 23.7201L37.2644 21.4543L43.766 19.6604ZM34.31 24.0433L38.9335 31.0037L30.1252 27.817L34.31 24.0433ZM32.3831 24.8041L31.8403 25.2936L31.6232 24.9899L32.3831 24.8041ZM30.6692 25.1846L31.1745 25.8939L30.0796 26.881C29.9935 26.6631 29.9483 26.4336 29.9461 26.2019C29.9461 25.5299 30.3117 25.2741 30.6692 25.1846ZM30.0365 30.6588L30.0425 30.6375L40.1905 34.6887L30.122 30.311C30.1313 30.2613 30.1386 30.2065 30.1462 30.1512L38.0287 33.162L30.1737 29.8067C30.1757 29.6534 30.1641 29.5001 30.139 29.3485L37.4347 32.0887L30.0409 28.9561C29.9934 28.8111 29.9299 28.6709 29.8512 28.5377L39.8927 32.4483L40.1211 32.7921C40.5921 33.4671 41.4464 33.3423 41.877 33.2253C42.4722 33.4932 43.5392 34.1131 43.266 35.0262C43.1219 35.5091 42.8051 35.7432 42.2979 35.7432C41.7842 35.7432 41.2713 35.4981 41.266 35.4948L30.0365 30.6588ZM40.1437 35.5021L39.3504 35.8017L38.6764 34.8584L40.1437 35.5021ZM37.0711 37.4827L33.9521 32.7866L37.0522 34.1458L38.5182 36.204C37.927 36.4344 37.2664 36.9604 37.0711 37.4827ZM50.8051 32.9982C50.78 33.1498 50.7684 33.3031 50.7704 33.4564L42.9153 36.8117L50.7978 33.8009C50.8055 33.8558 50.8123 33.911 50.822 33.9607L40.7535 38.3388L50.9015 34.2875C50.9038 34.2946 50.9058 34.3017 50.9076 34.3089L39.678 39.1441C39.6728 39.1474 39.1607 39.3925 38.6462 39.3925C38.1385 39.3925 37.8221 39.1581 37.6781 38.6755C37.3076 37.4363 39.4141 36.7336 39.4456 36.723L41.2918 36.0045C41.49 36.0814 42.9036 36.5875 43.5965 35.5941L44.0335 34.9368L51.0932 32.1874C51.0146 32.3207 50.9509 32.4609 50.9031 32.6058L43.5093 35.7384L50.8051 32.9982ZM50.8188 31.4667L44.8362 33.7281L46.4964 31.2286L49.2272 30.0313L50.8188 31.4667ZM51.7845 27.3786C51.763 27.5101 51.7529 27.6429 51.7542 27.7758L44.9472 30.6835L51.7784 28.0743C51.7853 28.1218 51.791 28.17 51.7994 28.2127L43.0731 32.0066L51.868 28.4957C51.8702 28.5017 51.8719 28.5079 51.8733 28.5141L42.1409 32.7052C42.1365 32.7078 41.6922 32.9205 41.2466 32.9205C40.8064 32.9205 40.5324 32.717 40.4077 32.2989C40.0864 31.2249 41.9121 30.6161 41.9395 30.6069L52.0339 26.676C51.9658 26.7916 51.9108 26.9132 51.8696 27.0389L45.4613 29.7537L51.7845 27.3786Z" fill="#BE2537"/>
</svg>
